# xmcd CD database file
#
# Track frame offsets:
#	150
#	27424
#	60057
#	88348
#	114008
#	136010
#	160485
#	183927
#	211191
#	233538
#	258879
#	282613
#	307724
#
# Disc length: 4353 seconds
#
# Revision: 3
# Processed by: cddbd v1.5.1PL0 Copyright (c) Steve Scherf et al.
# Submitted via: CDex 1.50beta8
#
DISCID=9d10ff0d
DTITLE=中島美嘉 - LOVE
DYEAR=2003
DGENRE=JPop
TTITLE0=Venus in The Dark
TTITLE1=Love Addict
TTITLE2=aroma
TTITLE3=雪の華
TTITLE4=RESISTANCE(album version)
TTITLE5=FIND THE WAY
TTITLE6=marionette
TTITLE7=接吻
TTITLE8=You send me love
TTITLE9=Be in Silence
TTITLE10=LOVE NO CRY
TTITLE11=愛してる(album version)
TTITLE12=LAST WALTZ
EXTD=YEAR: 2003
EXTT0=
EXTT1=
EXTT2=
EXTT3=
EXTT4=
EXTT5=
EXTT6=
EXTT7=
EXTT8=
EXTT9=
EXTT10=
EXTT11=
EXTT12=
PLAYORDER=
